<?xml version="1.0"?>
<svg xmlns="http://www.w3.org/2000/svg" viewBox="4 0 292 64" width="1168" height="256">
  <title>BiGym 2.0</title>
  <path fill="#eceef1" fill-rule="evenodd" d="M8 4H20V24H44A12 12 0 0 1 56 36V60H8ZM20 32V52H44V36A4 4 0 0 0 40 32Z"/>
  <circle cx="50" cy="10" r="6" fill="#56a7dc"/>
  <path fill="#eceef1" d="M75.0731826410061 49.0V15.0H87.39511182831555Q92.53657047923018 15.0 95.46827511671113 17.28292623380335Q98.39997975419207 19.565852467606707 98.39997975419207 23.60487626238567Q98.39997975419207 25.90731885956555 97.4731475085747 27.6926864996189Q96.54631526295732 29.478054139672256 94.88777272294207 30.570735280106707Q97.62923971036585 31.673170136242376 98.93168230754573 33.77073260051448Q100.2341249047256 35.86829506478659 100.2341249047256 38.92195836509146Q100.2341249047256 43.62439560308689 97.26339498380335 46.31219780154345Q94.2926650628811 49.0 89.07315286775915 49.0ZM82.05850740758385 42.590281416730186H88.50730337747714Q93.25855683117378 42.590281416730186 93.25855683117378 38.60976502953506Q93.25855683117378 36.6878007097942 92.06342892530488 35.63901277867759Q90.86830101943598 34.590224847560975 88.6926805449695 34.590224847560975H82.05850740758385ZM82.05850740758385 28.35611482945884H87.53170553067835Q89.34634920445885 28.35611482945884 90.38538044254955 27.3853759765625Q91.42441168064025 26.414637123666157 91.42441168064025 24.707308141196645Q91.42441168064025 23.126807236089938 90.38050060737424 22.268262909679876Q89.33658953410823 21.409718583269814 87.39511182831555 21.409718583269814H82.05850740758385Z M103.78537657202745 49.0V24.95121951219512H110.49753179782775V49.0ZM103.66829923304115 21.429255787919207V15.0H110.653632931593V21.429255787919207Z M130.08780725990854 49.819508622332314Q125.42439381669207 49.819508622332314 121.8195175543064 47.58536287633384Q118.21464129192073 45.351217130335364 116.14635039538871 41.33658357945884Q114.0780594988567 37.321950028582314 114.0780594988567 31.975609756097562Q114.0780594988567 26.629269483612806 116.15122874190168 22.63902617663872Q118.22439798494665 18.648782869664632 121.93659042730565 16.414637123666154Q125.64878286966464 14.180491377667678 130.52682867282775 14.180491377667678Q136.0390178401296 14.180491377667678 140.02925816977898 16.93170761480564Q144.01949849942835 19.682923851943595 145.75608267435214 24.52194288300305L139.18051221894055 26.892661490091463Q138.1463623046875 24.043873856707314 135.9219658084032 22.44874833269817Q133.6975693121189 20.853622808689025 130.52682867282775 20.853622808689025Q127.64877096036585 20.853622808689025 125.5121787466654 22.19996903582317Q123.37558653296495 23.546315262957314 122.2194853991997 26.019494033441312Q121.06338426543445 28.492672803925306 121.06338426543445 31.975609756097562Q121.06338426543445 35.458546708269814 122.2194853991997 37.95611572265625Q123.37558653296495 40.45368473704268 125.5121787466654 41.80003096417683Q127.64877096036585 43.146377191310975 130.52682867282775 43.146377191310975Q132.0487834651296 43.146377191310975 133.6292754382622 42.71710800543064Q135.2097674113948 42.2878388195503 136.5561121498666 41.24393370093369Q137.9024568883384 40.200028582317074 138.73660501619665 38.292708234089176Q139.5707531440549 36.38538788586128 139.5707531440549 33.468309355945124V31.682932783917682L141.1317198218369 36.56095179115854H131.29757764862805V30.3268417730564H145.75608267435214V49.0H139.60977693883385L138.6341731373857 43.8487578601372L139.8341659918064 44.81460496855945Q138.91709341653964 46.41461628239329 137.4731877024581 47.54632866091845Q136.02928198837654 48.6780410394436 134.17074063929118 49.24877483088795Q132.3121992902058 49.819508622332314 130.08780725990854 49.819508622332314Z M151.93172696741615 58.94146281916921 156.9073307688643 46.931721012766765 147.93171505811736 24.95121951219512H155.2780136480564L160.46828553734755 40.24883288871951L165.7853855040015 24.95121951219512H173.00485601657775L159.19022127477135 58.94146281916921Z M175.4439131573933 49.0V24.95121951219512H182.1658250762195V31.224389052972562L180.6731522722942 32.59022187023628Q181.03412907298016 30.10242890148628 181.88778612090317 28.50731230945122Q182.7414431688262 26.912195717416157 183.90241669445504 26.02927007907774Q185.06339022008385 25.146344440739327 186.3365597608613 24.795124333079265Q187.6097293016387 24.443904225419207 188.80973108803352 24.443904225419207Q190.57559129668445 24.443904225419207 192.3121754716082 25.117077338986277Q194.048759646532 25.79025045255335 195.37558504430257 27.492689179211126Q196.70241044207316 29.1951279058689 197.2097257288491 32.326826886432926L193.1902391387195 33.995096346227136Q193.92194645579266 30.258530035251525 195.414623725705 28.195120462557163Q196.90730099561736 26.131710889862806 198.7853467987805 25.287807557641006Q200.6633926019436 24.443904225419207 202.57559427400915 24.443904225419207Q205.70729920922255 24.443904225419207 207.6487605397294 25.804879537442837Q209.59022187023626 27.165854849466463 210.5170496498666 29.268295660251525Q211.44387742949695 31.370736471036583 211.44387742949695 33.66342535251525V49.0H204.73172220369665V35.30243961985518Q204.73172220369665 33.60487030773628 204.29757467130335 32.48291164491235Q203.86342713891005 31.360952982088413 203.03903272675302 30.8146064572218Q202.21463831459602 30.268259932355182 200.9853604944741 30.268259932355182Q199.58047708650915 30.268259932355182 198.64876500571646 31.009725431116614Q197.71705292492376 31.75119092987805 197.25363531345272 33.25851217130335Q196.7902177019817 34.765833412728654 196.7902177019817 37.087789395960364V49.0H190.10732957793445V35.23414276867378Q190.10732957793445 32.746323004001525 189.1707391506288 31.50729146817835Q188.23414872332316 30.268259932355182 186.53657643387956 30.268259932355182Q185.09266923113566 30.268259932355182 184.11705500905106 31.014603777629574Q183.14144078696646 31.760947622903963 182.653632931593 33.263390517816305Q182.1658250762195 34.765833412728654 182.1658250762195 37.087789395960364V49.0Z"/>
  <path fill="#56a7dc" d="M226.60488519435975 49.0V44.0244140625Q228.11708329363566 42.93172696741616 230.1512332078887 41.468309355945124Q232.18538312214176 40.00489174447409 234.30733731897865 38.24879120617378Q236.42929151581555 36.492690667873475 238.24880609279725 34.4731757931593Q240.06832066977896 32.453660918445124 241.209785275343 30.287803091653963Q242.351249880907 28.121945264862806 242.351249880907 25.848769769435975Q242.351249880907 23.868268268864327 241.3268507050305 22.492651962652438Q240.30245152915396 21.11703565644055 238.0 21.11703565644055Q236.0585312261814 21.11703565644055 234.9707195002858 22.126792349466463Q233.88290777439022 23.136549042492376 233.39997677686736 24.6536269769436Q232.9170457793445 26.170704911394818 232.82924149676066 27.69266863567073L226.24391434832316 27.165842940167682Q226.24391434832316 24.89267042206555 227.0146454601753 22.673159715605944Q227.78537657202742 20.45364900914634 229.29757020531628 18.624383693788108Q230.80976383860516 16.795118378429876 233.03902974942832 15.707315584508382Q235.2682956602515 14.619512790586889 238.1853652581936 14.619512790586889Q241.33658357945882 14.619512790586889 243.78536168540393 15.990243306974085Q246.23413979134907 17.36097382336128 247.62438220512576 19.83414217320884Q249.01462461890242 22.3073105230564 249.01462461890242 25.624380716463413Q249.01462461890242 28.121945264862806 248.20974359279722 30.46341165682165Q247.40486256669206 32.80487804878049 245.91705322265625 34.96097769388338Q244.4292438786204 37.11707733898628 242.33167992568596 39.02927454506479Q240.2341159727515 40.9414717511433 237.609726324314 42.590254620807926Q234.9853366758765 44.23903749047256 231.95119569359755 45.55611363852896L233.7267947313262 42.765889981897864H250.34145448266005V49.0Z M253.43416241901676 49.0V42.3268447503811H260.4194961175686V49.0Z M275.4829280201982 49.46829149199695Q272.1853741901677 49.46829149199695 269.99513356278584 48.32195151724466Q267.804892935404 47.175611542492376 266.47806456030867 45.27317400676448Q265.1512361852134 43.37073647103659 264.47318770245806 41.0634199933308Q263.7951392197028 38.756103515625 263.58538222894435 36.331712676257624Q263.375625238186 33.90732183689025 263.375625238186 31.800001190929876Q263.375625238186 29.78048482755335 263.5805038824314 27.439019924256858Q263.7853825266768 25.097555020960364 264.44391911204264 22.795116889767527Q265.1024556974085 20.492678758574694 266.4244057259908 18.614631466749238Q267.7463557545732 16.736584174923777 269.95122993283155 15.59024420017149Q272.15610411109 14.443904225419203 275.4536579411204 14.443904225419203Q278.7707221798781 14.443904225419203 280.9707180116235 15.580487507145577Q283.1707138433689 16.71707078887195 284.4975422184642 18.604873285060975Q285.8243705935595 20.49267578125 286.47315197456174 22.790235565929876Q287.121933355564 25.087795350609756 287.3365686928354 27.439016946932163Q287.5512040301067 29.790238543254574 287.5512040301067 31.809757883955793Q287.5512040301067 33.956105302019814 287.3365686928354 36.38537448790015Q287.121933355564 38.81464367378049 286.43412817978276 41.117081804973324Q285.7463230040015 43.41951993616616 284.4243729754192 45.307322432355186Q283.1024229468369 47.19512492854421 280.9268173589939 48.33170821027058Q278.7512117711509 49.46829149199695 275.4829280201982 49.46829149199695ZM275.4829280201982 43.04881621570122Q277.7073230278201 43.04881621570122 278.82440185546875 41.526861423399396Q279.9414806831174 40.00490663109756 280.32197235851754 37.48782571932165Q280.7024640339177 34.97074480754573 280.7024640339177 32.03414693692835Q280.7024640339177 28.941450909870426 280.3170940120046 26.419491651581552Q279.9317239900915 23.897532393292682 278.8097668159299 22.395089498380337Q277.6878096417683 20.892646603467988 275.4536579411204 20.892646603467988Q273.7560916063262 20.892646603467988 272.7121849990473 21.770698361280488Q271.6682783917683 22.648750119092988 271.15120194597944 24.1950966439596Q270.6341255001906 25.74144316882622 270.43412371379577 27.751205816501525Q270.2341219274009 29.760968464176827 270.2341219274009 32.02439024390244Q270.2341219274009 34.19025104801829 270.43412371379577 36.175623451791154Q270.6341255001906 38.160995855564025 271.1560802924924 39.70246403391768Q271.6780350847942 41.24393221227134 272.72682003858614 42.14637421398628Q273.7756049923781 43.04881621570122 275.4829280201982 43.04881621570122Z"/>
</svg>
